<?xml version="1.0" encoding="utf-8"?>
<!-- Generator: Adobe Illustrator 27.0.0, SVG Export Plug-In . SVG Version: 6.00 Build 0)  -->
<svg version="1.1" id="Layer_1" xmlns="http://www.w3.org/2000/svg" xmlns:xlink="http://www.w3.org/1999/xlink" x="0px" y="0px"
	 viewBox="0 0 351.4 72.4" style="enable-background:new 0 0 351.4 72.4;" xml:space="preserve">
<style type="text/css">
	.st0{fill:#0E75BC;}
	.st1{fill:#F15A29;}
</style>
<g>
	<g>
		<path class="st0" d="M126.3,13.7h9.5V47h20.6v7.7h-30V13.7z"/>
		<path class="st0" d="M191.4,41.5h-23.8c0.4,1.9,1.4,3.5,3,4.6c1.6,1.1,3.6,1.7,6,1.7c1.6,0,3.1-0.2,4.4-0.7
			c1.3-0.5,2.5-1.3,3.5-2.3l4.9,5.3c-3,3.4-7.3,5.1-13,5.1c-3.5,0-6.7-0.7-9.4-2.1c-2.7-1.4-4.8-3.3-6.3-5.8
			c-1.5-2.5-2.2-5.3-2.2-8.4c0-3.1,0.7-5.9,2.2-8.3c1.5-2.5,3.5-4.4,6-5.8c2.6-1.4,5.4-2.1,8.6-2.1c3.1,0,5.9,0.7,8.4,2
			s4.5,3.2,5.9,5.7c1.4,2.5,2.1,5.4,2.1,8.6C191.6,39.2,191.6,40,191.4,41.5z M170.1,31.4c-1.4,1.2-2.3,2.8-2.6,4.8H183
			c-0.3-2-1.2-3.6-2.6-4.8c-1.4-1.2-3.1-1.8-5.2-1.8C173.2,29.7,171.5,30.2,170.1,31.4z"/>
		<path class="st1" d="M237,2.9l-21.8,51.8h-9.4l-13.2-31.5h9.4l8.7,21.4l14-33.2C226.7,6.4,231.5,3.1,237,2.9L237,2.9z"/>
		<path class="st0" d="M262,41.5h-23.8c0.4,1.9,1.4,3.5,3,4.6c1.6,1.1,3.6,1.7,6,1.7c1.6,0,3.1-0.2,4.4-0.7c1.3-0.5,2.5-1.3,3.5-2.3
			l4.9,5.3c-3,3.4-7.3,5.1-13,5.1c-3.5,0-6.7-0.7-9.4-2.1c-2.7-1.4-4.8-3.3-6.3-5.8c-1.5-2.5-2.2-5.3-2.2-8.4c0-3.1,0.7-5.9,2.2-8.3
			c1.5-2.5,3.5-4.4,6-5.8c2.6-1.4,5.4-2.1,8.6-2.1c3.1,0,5.9,0.7,8.4,2s4.5,3.2,5.9,5.7c1.4,2.5,2.1,5.4,2.1,8.6
			C262.2,39.2,262.1,40,262,41.5z M240.6,31.4c-1.4,1.2-2.3,2.8-2.6,4.8h15.5c-0.3-2-1.2-3.6-2.6-4.8c-1.4-1.2-3.1-1.8-5.2-1.8
			C243.8,29.7,242,30.2,240.6,31.4z"/>
		<path class="st0" d="M288.6,53.2c-0.9,0.7-2,1.2-3.3,1.5c-1.3,0.3-2.7,0.5-4.1,0.5c-3.7,0-6.7-1-8.7-2.9c-2.1-1.9-3.1-4.7-3.1-8.4
			V30.9h-4.9v-7h4.9v-7.7h9.1v7.7h7.9v7h-7.9v12.8c0,1.3,0.3,2.4,1,3.1c0.7,0.7,1.6,1.1,2.9,1.1c1.4,0,2.7-0.4,3.7-1.2L288.6,53.2z"
			/>
		<path class="st0" d="M298.8,53.1c-2.6-1.4-4.7-3.3-6.2-5.8c-1.5-2.5-2.2-5.3-2.2-8.4s0.7-5.9,2.2-8.4c1.5-2.5,3.5-4.4,6.2-5.8
			c2.6-1.4,5.6-2.1,8.9-2.1s6.3,0.7,8.9,2.1s4.7,3.3,6.1,5.8c1.5,2.5,2.2,5.3,2.2,8.4s-0.7,5.9-2.2,8.4c-1.5,2.5-3.5,4.4-6.1,5.8
			c-2.6,1.4-5.6,2.1-8.9,2.1S301.4,54.5,298.8,53.1z M313.5,45.3c1.5-1.6,2.3-3.7,2.3-6.4c0-2.6-0.7-4.8-2.3-6.4
			c-1.5-1.6-3.4-2.4-5.8-2.4s-4.3,0.8-5.8,2.4c-1.5,1.6-2.3,3.7-2.3,6.4c0,2.6,0.8,4.8,2.3,6.4c1.5,1.6,3.5,2.4,5.8,2.4
			S312,46.9,313.5,45.3z"/>
		<path class="st0" d="M351.4,53.2c-0.9,0.7-2,1.2-3.3,1.5c-1.3,0.3-2.7,0.5-4.1,0.5c-3.7,0-6.7-1-8.7-2.9c-2.1-1.9-3.1-4.7-3.1-8.4
			V30.9h-4.9v-7h4.9v-7.7h9.1v7.7h7.9v7h-7.9v12.8c0,1.3,0.3,2.4,1,3.1c0.7,0.7,1.6,1.1,2.9,1.1c1.4,0,2.7-0.4,3.7-1.2L351.4,53.2z"
			/>
	</g>
	<g>
		<polygon class="st0" points="101.3,29 99.5,30.9 94.1,36.2 92.1,38.3 88.7,41.6 86.9,43.4 81.4,49 79.7,50.7 77.9,52.4 72.4,57.9 
			70.6,56.1 66.9,52.4 65.2,50.7 59.8,45.3 57.9,43.4 56.1,41.6 50.7,36.2 49,34.6 45.3,30.9 43.5,29 38.3,23.8 36.2,21.7 
			34.6,20.1 29,14.5 27.5,15.9 23.4,20.1 21.7,21.7 16.7,26.7 14.5,29 16.4,30.9 16.7,31.2 21.7,36.2 27.1,41.6 27.5,42 29,43.4 
			36.2,36.2 38.3,38.3 41.6,41.6 43.5,43.4 29,57.9 27.5,56.5 23.4,52.4 21.7,50.7 16.7,45.7 0,29 7.2,21.7 8.9,20.1 14.5,14.5 
			16.7,12.2 19.6,9.3 21.7,7.2 27.5,1.5 29,0 36.2,7.2 38.3,9.3 38.3,9.3 38.3,9.3 43.5,14.5 49,20.1 49,20.1 49.1,20.1 50.7,21.7 
			58,29 59.8,30.8 59.8,30.9 59.8,30.9 65.2,36.2 70.6,41.6 70.6,41.6 70.6,41.6 72.4,43.4 74.2,41.6 79.7,36.2 81.4,34.5 85,30.9 
			86.9,29 72.4,14.5 70.6,16.3 66.8,20.1 65.2,21.7 63.6,20.1 59.8,16.4 58,14.5 59.8,12.6 63.1,9.3 65.2,7.2 70.6,1.8 72.4,0 
			79.6,7.3 81.4,9 81.4,9.3 81.6,9.3 86.9,14.5 92.1,19.7 92.1,20.1 92.4,20.1 94.1,21.8 		"/>
		<path class="st1" d="M63.2,63.2l-3.3-3.3l-1.9-1.9l-5.5-5.5l-1.7-1.7L49,52.3v0.1H49L38.3,63.1v0.1h-0.1l-2,2l7.2,7.2l5.6-5.6
			l1.6-1.6l7.2,7.2l7.2-7.2L63.2,63.2z"/>
	</g>
</g>
</svg>
